<svg width="24" height="24" viewBox="0 0 24 24" fill="none" xmlns="http://www.w3.org/2000/svg">
    <path d="M12 2C6.48 2 2 6.48 2 12C2 17.52 6.48 22 12 22C17.52 22 22 17.52 22 12C22 6.48 17.52 2 12 2ZM12 20C7.59 20 4 16.41 4 12C4 7.59 7.59 4 12 4C16.41 4 20 7.59 20 12C20 16.41 16.41 20 12 20Z" fill="currentColor"/>
    <path d="M12 6C9.24 6 7 8.24 7 11C7 12.76 7.85 14.29 9.08 15.18C9.13 15.21 9.19 15.23 9.25 15.23C9.38 15.23 9.51 15.18 9.6 15.08L10.65 13.92C10.74 13.83 10.79 13.7 10.79 13.57C10.79 13.31 10.6 13.09 10.38 13.03C9.9 12.82 9.5 12.44 9.5 11.9C9.5 11.17 10.17 10.5 11 10.5C11.83 10.5 12.5 11.17 12.5 11.9C12.5 12.44 12.1 12.82 11.62 13.03C11.4 13.09 11.21 13.31 11.21 13.57C11.21 13.7 11.26 13.83 11.35 13.92L12.4 15.08C12.49 15.18 12.62 15.23 12.75 15.23C12.81 15.23 12.87 15.21 12.92 15.18C14.15 14.29 15 12.76 15 11C15 8.24 12.76 6 12 6Z" fill="currentColor"/>
</svg>
